<?xml version="1.0" encoding="iso-8859-1"?>
<!-- Generator: Adobe Illustrator 25.2.1, SVG Export Plug-In . SVG Version: 6.00 Build 0)  -->
<svg version="1.1" id="Layer_1" xmlns="http://www.w3.org/2000/svg" xmlns:xlink="http://www.w3.org/1999/xlink" x="0px" y="0px"
	 viewBox="0 0 18.004 18.068" style="enable-background:new 0 0 18.004 18.068;" xml:space="preserve">
<g id="Contents" transform="translate(-2.998 -2.933)">
	<path id="Path_69" style="fill:none;stroke:#E61B33;stroke-width:2;stroke-linecap:round;stroke-linejoin:round;" d="M6.68,20
		h10.64c1.027,0,1.887-0.778,1.99-1.8L20,11.266c0.016-0.157-0.045-0.312-0.162-0.417l-7.5-6.722c-0.19-0.17-0.477-0.17-0.667,0
		l-7.5,6.721C4.05,10.952,3.987,11.108,4,11.267L4.689,18.2C4.792,19.222,5.652,20.001,6.68,20z"/>
	<path id="Rectangle_46" style="fill:none;stroke:#E61B33;stroke-width:2;stroke-linecap:round;stroke-miterlimit:10;" d="M9.5,14h5
		c0.276,0,0.5,0.224,0.5,0.5v5c0,0.276-0.224,0.5-0.5,0.5h-5C9.224,20,9,19.776,9,19.5v-5C9,14.224,9.224,14,9.5,14z"/>
	
		<line id="Line_132" style="fill:none;stroke:#E61B33;stroke-width:2;stroke-linecap:round;stroke-linejoin:round;" x1="11" y1="10" x2="13" y2="10"/>
</g>
</svg>
