<?xml version="1.0" encoding="iso-8859-1"?>
<!-- Generator: Adobe Illustrator 25.2.1, SVG Export Plug-In . SVG Version: 6.00 Build 0)  -->
<svg version="1.1" id="Layer_1" xmlns="http://www.w3.org/2000/svg" xmlns:xlink="http://www.w3.org/1999/xlink" x="0px" y="0px"
	 viewBox="0 0 16 18" style="enable-background:new 0 0 16 18;" xml:space="preserve">
<g id="Contents" transform="translate(-91 -3)">
	<g id="Group_32">
		
			<line id="Line_124" style="fill:none;stroke:#E61B33;stroke-width:2;stroke-linecap:round;stroke-linejoin:round;" x1="96" y1="17" x2="97" y2="17"/>
		<path id="Rectangle_44" style="fill:none;stroke:#E61B33;stroke-width:2;stroke-linecap:round;stroke-linejoin:round;" d="M96,14
			h6c2.209,0,4,1.791,4,4v2l0,0H92l0,0v-2C92,15.791,93.791,14,96,14z"/>
		<path id="Path_67" style="fill:none;stroke:#E61B33;stroke-width:2;stroke-linecap:round;stroke-linejoin:round;" d="
			M100.336,10.109l-1.059,0.706c-0.168,0.112-0.386,0.112-0.554,0l-1.059-0.706C96.624,9.416,96,8.249,96,7l0,0c0-1.657,1.343-3,3-3
			l0,0c1.657,0,3,1.343,3,3l0,0C102,8.249,101.376,9.416,100.336,10.109z"/>
	</g>
</g>
</svg>
