<?xml version="1.0" encoding="iso-8859-1"?>
<!-- Generator: Adobe Illustrator 25.2.1, SVG Export Plug-In . SVG Version: 6.00 Build 0)  -->
<svg version="1.1" id="Layer_1" xmlns="http://www.w3.org/2000/svg" xmlns:xlink="http://www.w3.org/1999/xlink" x="0px" y="0px"
	 viewBox="0 0 180 21.794" style="enable-background:new 0 0 180 21.794;" xml:space="preserve">
<path style="fill:#E61B33;" d="M10.736,9.66c-0.377,0.671-0.945,1.208-1.706,1.61c-0.76,0.402-1.689,0.604-2.788,0.604H4.384v4.56
	H0.628V2.925h5.614c1.086,0,2.009,0.192,2.769,0.575c0.761,0.383,1.332,0.913,1.716,1.59c0.383,0.678,0.575,1.457,0.575,2.339
	C11.301,8.246,11.113,8.99,10.736,9.66z M7.469,7.428c0-0.984-0.53-1.476-1.59-1.476H4.384v2.932h1.495
	C6.939,8.885,7.469,8.399,7.469,7.428z"/>
<path style="fill:#E61B33;" d="M14.932,15.897c-0.849-0.447-1.517-1.086-2.002-1.915c-0.485-0.831-0.728-1.808-0.728-2.932
	c0-1.112,0.246-2.083,0.738-2.912c0.491-0.831,1.163-1.47,2.012-1.917c0.85-0.447,1.811-0.671,2.884-0.671s2.034,0.224,2.884,0.671
	c0.849,0.447,1.52,1.086,2.012,1.917c0.492,0.83,0.738,1.801,0.738,2.912s-0.246,2.085-0.738,2.922
	c-0.491,0.837-1.165,1.478-2.021,1.925c-0.857,0.449-1.821,0.671-2.894,0.671C16.743,16.567,15.782,16.346,14.932,15.897z
	 M19.128,12.726c0.351-0.39,0.527-0.947,0.527-1.676c0-0.728-0.176-1.284-0.527-1.667s-0.782-0.575-1.294-0.575
	c-0.511,0-0.939,0.191-1.284,0.575c-0.345,0.384-0.517,0.939-0.517,1.667c0,0.741,0.165,1.303,0.498,1.686
	c0.332,0.384,0.76,0.574,1.284,0.574C18.339,13.31,18.777,13.116,19.128,12.726z"/>
<path style="fill:#E61B33;" d="M30.29,6.125c0.6-0.357,1.245-0.536,1.935-0.536v4.005h-1.053c-0.818,0-1.424,0.159-1.821,0.479
	c-0.396,0.319-0.594,0.875-0.594,1.666v4.695h-3.756V5.684h3.756v1.897C29.178,6.968,29.69,6.483,30.29,6.125z"/>
<path style="fill:#E61B33;" d="M39.91,13.235v3.199h-1.629c-2.747,0-4.12-1.361-4.12-4.082V8.808h-1.322V5.684h1.322V3.078h3.775
	v2.606h1.955v3.123h-1.955v3.601c0,0.295,0.067,0.505,0.201,0.634c0.134,0.127,0.361,0.192,0.681,0.192L39.91,13.235L39.91,13.235z"
	/>
<path style="fill:#E61B33;" d="M41.623,8.137c0.403-0.831,0.952-1.47,1.648-1.917c0.697-0.446,1.472-0.67,2.329-0.67
	c0.741,0,1.379,0.147,1.916,0.44c0.536,0.294,0.952,0.69,1.246,1.188V5.684h3.756v10.75h-3.756V14.94
	c-0.294,0.499-0.713,0.894-1.255,1.188c-0.544,0.294-1.178,0.44-1.907,0.44c-0.857,0-1.632-0.222-2.329-0.671
	c-0.696-0.447-1.245-1.088-1.648-1.925c-0.402-0.837-0.604-1.811-0.604-2.922C41.02,9.938,41.221,8.967,41.623,8.137z M48.196,9.421
	c-0.377-0.396-0.841-0.594-1.389-0.594c-0.562,0-1.028,0.194-1.399,0.584c-0.371,0.39-0.555,0.937-0.555,1.639
	c0,0.689,0.184,1.236,0.555,1.638c0.37,0.402,0.837,0.604,1.399,0.604c0.549,0,1.012-0.198,1.389-0.594
	c0.376-0.395,0.565-0.946,0.565-1.648C48.762,10.36,48.572,9.817,48.196,9.421z"/>
<path style="fill:#E61B33;" d="M58.42,2.254v14.18h-3.756V2.254H58.42z"/>
<path style="fill:#E61B33;" d="M60.939,6.096c0.555-1.042,1.344-1.852,2.366-2.434c1.022-0.582,2.197-0.872,3.526-0.872
	c1.686,0,3.104,0.45,4.253,1.351c1.15,0.901,1.891,2.124,2.223,3.67h-4.042c-0.244-0.51-0.579-0.901-1.007-1.168
	C67.83,6.374,67.336,6.24,66.773,6.24c-0.869,0-1.562,0.31-2.079,0.929c-0.517,0.62-0.776,1.447-0.776,2.482
	c0,1.048,0.259,1.881,0.776,2.501c0.517,0.619,1.21,0.929,2.079,0.929c0.562,0,1.057-0.135,1.485-0.402
	c0.428-0.27,0.763-0.659,1.007-1.17h4.042c-0.332,1.545-1.073,2.77-2.223,3.67c-1.149,0.899-2.568,1.349-4.253,1.349
	c-1.329,0-2.505-0.29-3.526-0.871c-1.022-0.582-1.811-1.393-2.366-2.434c-0.556-1.043-0.834-2.233-0.834-3.574
	C60.105,8.322,60.383,7.137,60.939,6.096z"/>
<path style="fill:#E61B33;" d="M77.206,15.897c-0.849-0.447-1.517-1.086-2.002-1.915c-0.485-0.831-0.728-1.808-0.728-2.932
	c0-1.112,0.246-2.083,0.738-2.912c0.491-0.831,1.163-1.47,2.012-1.917c0.85-0.447,1.811-0.671,2.884-0.671
	c1.073,0,2.034,0.224,2.884,0.671c0.849,0.447,1.52,1.086,2.011,1.917c0.494,0.83,0.739,1.801,0.739,2.912s-0.245,2.085-0.739,2.922
	c-0.49,0.837-1.164,1.478-2.02,1.925c-0.857,0.449-1.821,0.671-2.894,0.671C79.018,16.567,78.056,16.346,77.206,15.897z
	 M81.403,12.726c0.351-0.39,0.527-0.947,0.527-1.676c0-0.728-0.176-1.284-0.527-1.667c-0.351-0.384-0.782-0.575-1.294-0.575
	c-0.511,0-0.939,0.191-1.284,0.575c-0.345,0.384-0.517,0.939-0.517,1.667c0,0.741,0.165,1.303,0.498,1.686
	c0.332,0.384,0.76,0.574,1.284,0.574S81.052,13.116,81.403,12.726z"/>
<path style="fill:#E61B33;" d="M104.514,6.815c0.772,0.818,1.159,1.936,1.159,3.354v6.266h-3.756v-5.768
	c0-0.575-0.16-1.022-0.479-1.341c-0.32-0.319-0.754-0.479-1.303-0.479c-0.55,0-0.984,0.159-1.304,0.479
	c-0.319,0.319-0.479,0.766-0.479,1.341v5.768h-3.755v-5.768c0-0.575-0.157-1.022-0.47-1.341c-0.314-0.319-0.744-0.479-1.293-0.479
	c-0.562,0-1.004,0.159-1.323,0.479c-0.319,0.319-0.479,0.766-0.479,1.341v5.768h-3.756V5.684h3.756v1.418
	c0.332-0.46,0.762-0.827,1.293-1.102c0.53-0.274,1.141-0.412,1.83-0.412c0.792,0,1.498,0.173,2.118,0.517
	c0.619,0.345,1.108,0.831,1.466,1.456c0.382-0.587,0.887-1.063,1.513-1.427c0.626-0.364,1.316-0.546,2.07-0.546
	C102.677,5.589,103.74,5.997,104.514,6.815z"/>
<path style="fill:#E61B33;" d="M124.959,6.815c0.772,0.818,1.159,1.936,1.159,3.354v6.266h-3.756v-5.768
	c0-0.575-0.16-1.022-0.479-1.341c-0.32-0.319-0.754-0.479-1.303-0.479c-0.55,0-0.984,0.159-1.304,0.479
	c-0.319,0.319-0.479,0.766-0.479,1.341v5.768h-3.755v-5.768c0-0.575-0.157-1.022-0.47-1.341c-0.314-0.319-0.744-0.479-1.293-0.479
	c-0.562,0-1.004,0.159-1.323,0.479c-0.319,0.319-0.479,0.766-0.479,1.341v5.768h-3.756V5.684h3.756v1.418
	c0.332-0.46,0.762-0.827,1.293-1.102c0.53-0.274,1.141-0.412,1.83-0.412c0.792,0,1.498,0.173,2.118,0.517
	c0.619,0.345,1.108,0.831,1.466,1.456c0.382-0.587,0.887-1.063,1.513-1.427c0.626-0.364,1.316-0.546,2.07-0.546
	C123.122,5.589,124.185,5.997,124.959,6.815z"/>
<path style="fill:#E61B33;" d="M139.165,5.684v10.75h-3.775v-1.533c-0.319,0.485-0.761,0.879-1.321,1.178
	c-0.564,0.302-1.208,0.45-1.937,0.45c-1.251,0-2.238-0.412-2.961-1.236c-0.721-0.822-1.083-1.945-1.083-3.361V5.684h3.736v5.767
	c0,0.614,0.163,1.096,0.489,1.448c0.327,0.35,0.757,0.525,1.294,0.525c0.549,0,0.982-0.175,1.303-0.525
	c0.319-0.352,0.479-0.834,0.479-1.448V5.684H139.165z"/>
<path style="fill:#E61B33;" d="M151.295,6.825c0.729,0.824,1.093,1.938,1.093,3.344v6.266h-3.755v-5.768
	c0-0.613-0.16-1.095-0.48-1.446c-0.319-0.351-0.747-0.527-1.283-0.527c-0.562,0-1.004,0.176-1.323,0.527
	c-0.319,0.351-0.479,0.833-0.479,1.446v5.768h-3.756V5.684h3.756v1.533c0.332-0.485,0.779-0.878,1.341-1.178
	c0.562-0.3,1.208-0.45,1.935-0.45C149.584,5.589,150.568,6.001,151.295,6.825z"/>
<path style="fill:#E61B33;" d="M154.753,4.142c-0.402-0.364-0.602-0.821-0.602-1.37c0-0.561,0.2-1.028,0.602-1.399
	c0.404-0.37,0.936-0.555,1.601-0.555c0.651,0,1.178,0.185,1.58,0.555c0.404,0.371,0.604,0.837,0.604,1.399
	c0,0.55-0.2,1.007-0.604,1.37c-0.402,0.364-0.929,0.546-1.58,0.546C155.689,4.688,155.156,4.506,154.753,4.142z M158.212,5.684
	v10.75h-3.756V5.684H158.212z"/>
<path style="fill:#E61B33;" d="M166.701,13.235v3.199h-1.63c-2.746,0-4.12-1.361-4.12-4.082V8.808h-1.321V5.684h1.321V3.078h3.776
	v2.606h1.953v3.123h-1.953v3.601c0,0.295,0.067,0.505,0.2,0.634c0.135,0.127,0.36,0.192,0.681,0.192L166.701,13.235L166.701,13.235z
	"/>
<path style="fill:#E61B33;" d="M180,5.684l-6.822,15.865h-4.082l2.569-5.576l-4.407-10.289h4.177l2.26,6.094l2.185-6.094H180z"/>
</svg>
